<svg width="24" height="24" xmlns="http://www.w3.org/2000/svg" fill="#000000">

 <g>
  <title>Layer 1</title>
  <path id="svg_1" fill="none" d="m0,0l24,0l0,24l-24,0l0,-24z"/>
  <path fill="#ff6933" id="svg_2" d="m18.3,5.71c-0.39,-0.39 -1.02,-0.39 -1.41,0l-4.89,4.88l-4.89,-4.89c-0.39,-0.39 -1.02,-0.39 -1.41,0c-0.39,0.39 -0.39,1.02 0,1.41l4.89,4.89l-4.89,4.89c-0.39,0.39 -0.39,1.02 0,1.41c0.39,0.39 1.02,0.39 1.41,0l4.89,-4.89l4.89,4.89c0.39,0.39 1.02,0.39 1.41,0c0.39,-0.39 0.39,-1.02 0,-1.41l-4.89,-4.89l4.89,-4.89c0.38,-0.38 0.38,-1.02 0,-1.4z"/>
 </g>
</svg>