<svg width="24" height="24" xmlns="http://www.w3.org/2000/svg" fill="#000000" enable-background="new 0 0 24 24">

 <g>
  <title>Layer 1</title>
  <rect id="svg_1" width="24" height="24" fill="none"/>
  <path fill="#ff6933" id="svg_2" d="m18,2l-9,0c-1.1,0 -2,0.9 -2,2l0,12c0,1.1 0.9,2 2,2l9,0c1.1,0 2,-0.9 2,-2l0,-12c0,-1.1 -0.9,-2 -2,-2zm0,14l-9,0l0,-12l9,0l0,12zm-15,-1l0,-2l2,0l0,2l-2,0zm0,-5.5l2,0l0,2l-2,0l0,-2zm7,10.5l2,0l0,2l-2,0l0,-2zm-7,-1.5l0,-2l2,0l0,2l-2,0zm2,3.5c-1.1,0 -2,-0.9 -2,-2l2,0l0,2zm3.5,0l-2,0l0,-2l2,0l0,2zm5,0l0,0l0,-2l2,0l0,0c0,1.1 -0.9,2 -2,2zm-8.5,-16l0,0l0,2l-2,0l0,0c0,-1.1 0.9,-2 2,-2z"/>
 </g>
</svg>